<?xml version="1.0" encoding="iso-8859-1"?>
<!-- Generator: Adobe Illustrator 29.0.0, SVG Export Plug-In . SVG Version: 9.03 Build 54978)  -->
<svg version="1.1" id="Capa_1" xmlns="http://www.w3.org/2000/svg" xmlns:xlink="http://www.w3.org/1999/xlink" x="0px" y="0px"
	 viewBox="0 0 283.727 283.75" style="enable-background:new 0 0 283.727 283.75;" xml:space="preserve">
<g id="XMLID_120_">
	<path id="XMLID_51_" style="fill:#57889E;" d="M141.84,236.505c-13.96,0-27.408-2.971-39.968-8.832l5.015-10.748
		c10.978,5.123,22.738,7.72,34.953,7.72c45.638,0,82.767-37.129,82.767-82.767v-0.184h11.86v0.184
		C236.467,194.055,194.017,236.505,141.84,236.505z M59.073,141.97h-11.86v-0.092c0-52.177,42.449-94.627,94.627-94.627
		c13.927,0,27.344,2.958,39.879,8.791l-5.003,10.753c-10.956-5.098-22.69-7.683-34.875-7.683c-45.637,0-82.766,37.129-82.766,82.767
		v0.091H59.073z"/>
	<path id="XMLID_10_" style="fill:#57889E;" d="M141.84,243.338c-55.945,0-101.46-45.515-101.46-101.461
		s45.515-101.46,101.46-101.46c55.946,0,101.461,45.515,101.461,101.46S197.785,243.338,141.84,243.338z M141.84,43.844
		c-54.056,0-98.034,43.978-98.034,98.034s43.978,98.034,98.034,98.034s98.034-43.978,98.034-98.034S195.896,43.844,141.84,43.844z"
		/>
	<path id="XMLID_4_" style="fill:#57889E;" d="M141.84,262.446c-66.481,0-120.568-54.087-120.568-120.569
		S75.358,21.309,141.84,21.309s120.569,54.087,120.569,120.568S208.322,262.446,141.84,262.446z M141.84,25.381
		c-64.236,0-116.497,52.26-116.497,116.497s52.26,116.497,116.497,116.497s116.497-52.261,116.497-116.497
		S206.076,25.381,141.84,25.381z"/>
	<path id="XMLID_25_" style="fill:#57889E;" d="M141.863,210.472h-0.023c-0.302,0-0.603-0.002-0.904-0.005l0.028-2.316
		c0.292,0.004,0.584,0.005,0.876,0.005L141.863,210.472z M142.789,210.464l-0.027-2.316c0.298-0.003,0.596-0.01,0.894-0.018
		l0.061,2.316C143.409,210.455,143.099,210.461,142.789,210.464z M140.006,210.447c-0.31-0.009-0.62-0.019-0.93-0.031l0.095-2.315
		c0.298,0.012,0.596,0.022,0.895,0.029L140.006,210.447z M144.644,210.415l-0.094-2.315c0.3-0.012,0.6-0.026,0.898-0.042
		l0.122,2.313C145.262,210.387,144.954,210.402,144.644,210.415z M138.151,210.374c-0.31-0.016-0.619-0.034-0.928-0.055l0.156-2.311
		c0.298,0.02,0.596,0.037,0.895,0.053L138.151,210.374z M146.498,210.315l-0.156-2.311c0.3-0.02,0.599-0.042,0.897-0.066
		l0.184,2.309C147.115,210.271,146.807,210.294,146.498,210.315z M136.299,210.251c-0.31-0.025-0.619-0.052-0.927-0.081l0.217-2.306
		c0.297,0.028,0.594,0.054,0.892,0.077L136.299,210.251z M148.349,210.167l-0.217-2.306c0.298-0.029,0.595-0.058,0.891-0.09
		l0.251,2.302C148.967,210.107,148.658,210.138,148.349,210.167z M134.45,210.078c-0.309-0.033-0.616-0.069-0.924-0.105l0.278-2.3
		c0.296,0.036,0.593,0.07,0.891,0.102L134.45,210.078z M150.195,209.967l-0.278-2.3c0.297-0.036,0.593-0.073,0.888-0.113
		l0.313,2.295C150.811,209.891,150.503,209.93,150.195,209.967z M132.603,209.855c-0.307-0.041-0.613-0.085-0.918-0.13l0.339-2.292
		c0.296,0.044,0.593,0.085,0.891,0.126L132.603,209.855z M152.035,209.719l-0.339-2.291c0.295-0.044,0.59-0.09,0.885-0.138
		l0.373,2.286C152.649,209.625,152.342,209.673,152.035,209.719z M130.766,209.582c-0.306-0.05-0.61-0.102-0.915-0.155l0.401-2.281
		c0.294,0.052,0.59,0.102,0.886,0.15L130.766,209.582z M153.868,209.42l-0.399-2.283c0.294-0.051,0.588-0.105,0.88-0.161
		l0.435,2.276C154.48,209.31,154.174,209.366,153.868,209.42z M128.938,209.26c-0.305-0.058-0.609-0.118-0.913-0.181l0.468-2.268
		c0.292,0.06,0.585,0.118,0.878,0.174L128.938,209.26z M155.692,209.071l-0.461-2.27c0.293-0.06,0.585-0.121,0.876-0.185
		l0.495,2.263C156.3,208.945,155.996,209.01,155.692,209.071z M127.118,208.888c-0.303-0.066-0.606-0.134-0.908-0.205l0.529-2.256
		c0.29,0.069,0.581,0.134,0.873,0.198L127.118,208.888z M157.509,208.674l-0.528-2.256c0.292-0.069,0.583-0.138,0.874-0.21
		l0.556,2.249C158.111,208.53,157.81,208.603,157.509,208.674z M125.309,208.466c-0.302-0.074-0.602-0.151-0.902-0.23l0.59-2.24
		c0.289,0.076,0.578,0.149,0.868,0.221L125.309,208.466z M159.316,208.226l-0.596-2.238l0.871-0.236l0.617,2.233L159.316,208.226z
		 M123.511,207.995c-0.299-0.083-0.598-0.167-0.895-0.254l0.65-2.224c0.287,0.084,0.574,0.166,0.861,0.245L123.511,207.995z
		 M161.102,207.73l-0.65-2.224c0.287-0.084,0.575-0.17,0.861-0.257l0.678,2.215C161.696,207.555,161.399,207.643,161.102,207.73z
		 M121.727,207.475c-0.298-0.092-0.594-0.185-0.89-0.281l0.71-2.204c0.286,0.092,0.572,0.182,0.86,0.27L121.727,207.475z
		 M162.878,207.184l-0.711-2.204c0.285-0.093,0.569-0.186,0.853-0.281l0.739,2.195C163.467,206.992,163.173,207.09,162.878,207.184z
		 M119.953,206.905c-0.295-0.099-0.589-0.201-0.882-0.303l0.765-2.186c0.283,0.099,0.567,0.197,0.852,0.292L119.953,206.905z
		 M164.637,206.592l-0.767-2.186c0.281-0.098,0.562-0.2,0.842-0.303l0.8,2.174C165.222,206.383,164.929,206.488,164.637,206.592z
		 M118.193,206.287c-0.292-0.108-0.584-0.216-0.875-0.329l0.831-2.161c0.279,0.107,0.559,0.212,0.841,0.314L118.193,206.287z
		 M166.384,205.95l-0.832-2.161c0.28-0.108,0.558-0.216,0.836-0.328l0.862,2.151C166.962,205.726,166.673,205.839,166.384,205.95z
		 M116.452,205.62c-0.289-0.116-0.576-0.233-0.862-0.351l0.886-2.14c0.277,0.115,0.556,0.228,0.835,0.339L116.452,205.62z
		 M168.106,205.262l-0.885-2.14c0.274-0.114,0.548-0.23,0.821-0.347l0.919,2.126C168.677,205.023,168.392,205.145,168.106,205.262z
		 M114.729,204.905c-0.285-0.123-0.568-0.248-0.85-0.373l0.943-2.117c0.274,0.122,0.55,0.243,0.826,0.363L114.729,204.905z
		 M169.807,204.53l-0.945-2.115c0.272-0.121,0.543-0.245,0.814-0.37l0.974,2.101C170.37,204.276,170.089,204.403,169.807,204.53z
		 M113.029,204.146c-0.282-0.131-0.563-0.263-0.843-0.397l1.002-2.088c0.27,0.129,0.541,0.257,0.813,0.383L113.029,204.146z
		 M171.488,203.75l-1.006-2.087c0.27-0.13,0.539-0.261,0.807-0.394l1.028,2.076C172.041,203.482,171.765,203.617,171.488,203.75z
		 M111.351,203.34c-0.278-0.138-0.555-0.278-0.831-0.42l1.057-2.062c0.266,0.136,0.534,0.273,0.803,0.405L111.351,203.34z
		 M173.143,202.928l-1.055-2.062c0.264-0.135,0.528-0.273,0.79-0.413l1.089,2.046C173.693,202.644,173.418,202.787,173.143,202.928z
		 M109.693,202.489c-0.273-0.146-0.545-0.293-0.816-0.441l1.11-2.033c0.264,0.144,0.529,0.288,0.795,0.429L109.693,202.489z
		 M174.778,202.06l-1.11-2.033c0.261-0.143,0.52-0.287,0.779-0.434l1.142,2.015C175.32,201.761,175.05,201.912,174.778,202.06z
		 M108.062,201.592c-0.27-0.153-0.539-0.308-0.807-0.466l1.172-1.997c0.258,0.151,0.518,0.3,0.778,0.448L108.062,201.592z
		 M176.389,201.147l-1.163-2.003c0.257-0.15,0.513-0.301,0.768-0.454l1.196,1.983C176.924,200.833,176.657,200.992,176.389,201.147z
		 M106.457,200.652c-0.265-0.16-0.529-0.322-0.791-0.485l1.22-1.969c0.255,0.158,0.512,0.315,0.769,0.47L106.457,200.652z
		 M177.977,200.191l-1.218-1.971c0.253-0.156,0.504-0.314,0.755-0.475l1.25,1.949C178.503,199.862,178.24,200.028,177.977,200.191z
		 M104.876,199.669c-0.26-0.167-0.52-0.337-0.778-0.506l1.274-1.935c0.251,0.166,0.503,0.33,0.756,0.492L104.876,199.669z
		 M179.539,199.191l-1.272-1.935c0.249-0.164,0.497-0.331,0.744-0.497l1.299,1.917C180.054,198.849,179.797,199.021,179.539,199.191
		z M103.325,198.646c-0.257-0.175-0.513-0.351-0.768-0.53l1.331-1.896c0.245,0.172,0.49,0.341,0.738,0.509L103.325,198.646z
		 M181.078,198.149l-1.332-1.896c0.245-0.172,0.49-0.345,0.734-0.52l1.352,1.882C181.581,197.794,181.329,197.972,181.078,198.149z
		 M101.8,197.579c-0.252-0.182-0.502-0.364-0.751-0.55l1.38-1.86c0.241,0.178,0.482,0.356,0.725,0.53L101.8,197.579z
		 M182.58,197.067l-1.377-1.862c0.241-0.178,0.48-0.358,0.718-0.539l1.401,1.846C183.076,196.699,182.829,196.884,182.58,197.067z
		 M100.307,196.474c-0.247-0.188-0.492-0.378-0.736-0.569l1.43-1.823c0.235,0.184,0.472,0.367,0.71,0.548L100.307,196.474z
		 M184.057,195.945l-1.427-1.825c0.235-0.184,0.469-0.37,0.702-0.557l1.452,1.805C184.543,195.563,184.301,195.754,184.057,195.945z
		 M98.844,195.327c-0.241-0.194-0.481-0.39-0.719-0.587l1.476-1.785c0.231,0.192,0.462,0.38,0.695,0.568L98.844,195.327z
		 M185.503,194.783l-1.476-1.785c0.231-0.191,0.46-0.382,0.687-0.576l1.5,1.766C185.979,194.387,185.742,194.585,185.503,194.783z
		 M97.414,194.143c-0.237-0.201-0.472-0.403-0.706-0.608l1.526-1.743c0.225,0.196,0.45,0.391,0.678,0.584L97.414,194.143z
		 M186.918,193.581l-1.524-1.745c0.225-0.197,0.449-0.395,0.672-0.594l1.548,1.723C187.383,193.172,187.152,193.377,186.918,193.581
		z M96.014,192.918c-0.23-0.206-0.459-0.414-0.687-0.625l1.571-1.703c0.22,0.203,0.442,0.404,0.664,0.605L96.014,192.918z
		 M188.298,192.343l-1.567-1.705c0.22-0.202,0.438-0.405,0.654-0.611l1.593,1.682C188.754,191.921,188.527,192.133,188.298,192.343z
		 M94.649,191.659c-0.225-0.214-0.449-0.428-0.67-0.644l1.618-1.659c0.213,0.209,0.429,0.416,0.646,0.621L94.649,191.659z
		 M189.648,191.066l-1.614-1.661c0.215-0.209,0.428-0.419,0.639-0.63l1.637,1.639C190.09,190.633,189.869,190.85,189.648,191.066z
		 M93.319,190.362c-0.219-0.219-0.437-0.44-0.653-0.662l1.663-1.613c0.207,0.215,0.417,0.427,0.629,0.639L93.319,190.362z
		 M190.96,189.755l-1.656-1.62c0.208-0.213,0.415-0.428,0.62-0.644l1.681,1.593C191.393,189.31,191.177,189.534,190.96,189.755z
		 M92.025,189.032c-0.213-0.225-0.424-0.451-0.634-0.679l1.703-1.57c0.203,0.219,0.407,0.438,0.612,0.656L92.025,189.032z
		 M192.238,188.408l-1.698-1.575c0.203-0.218,0.404-0.439,0.603-0.661l1.722,1.548C192.658,187.951,192.449,188.181,192.238,188.408
		z M90.767,187.667c-0.207-0.23-0.412-0.462-0.615-0.695l1.744-1.523c0.196,0.225,0.395,0.449,0.595,0.672L90.767,187.667z
		 M193.483,187.025l-1.744-1.523c0.197-0.225,0.393-0.453,0.587-0.681l1.763,1.502C193.888,186.558,193.686,186.792,193.483,187.025
		z M89.546,186.269c-0.2-0.235-0.398-0.472-0.596-0.71l1.784-1.479c0.191,0.231,0.383,0.461,0.577,0.689L89.546,186.269z
		 M194.686,185.612l-1.784-1.479c0.191-0.23,0.38-0.462,0.568-0.695l1.803,1.454C195.08,185.133,194.884,185.373,194.686,185.612z
		 M88.363,184.839c-0.194-0.242-0.387-0.484-0.577-0.728l1.826-1.426c0.184,0.235,0.369,0.469,0.556,0.701L88.363,184.839z
		 M195.854,184.165l-1.825-1.427c0.185-0.237,0.369-0.474,0.551-0.713l1.842,1.406C196.233,183.677,196.045,183.921,195.854,184.165
		z M87.221,183.379c-0.188-0.246-0.373-0.494-0.557-0.742l1.863-1.377c0.177,0.24,0.356,0.478,0.537,0.715L87.221,183.379z
		 M196.98,182.685l-1.862-1.377c0.179-0.242,0.356-0.484,0.531-0.727l1.878,1.356C197.347,182.187,197.164,182.436,196.98,182.685z
		 M86.116,181.887c-0.18-0.251-0.358-0.503-0.535-0.755l1.897-1.329c0.172,0.245,0.345,0.489,0.52,0.731L86.116,181.887z
		 M198.068,181.177l-1.9-1.326c0.172-0.247,0.343-0.493,0.512-0.741l1.915,1.303C198.421,180.668,198.245,180.923,198.068,181.177z
		 M85.054,180.367c-0.173-0.255-0.345-0.511-0.515-0.77l1.933-1.276c0.165,0.249,0.331,0.497,0.498,0.745L85.054,180.367z
		 M199.113,179.64l-1.932-1.278c0.165-0.249,0.328-0.501,0.49-0.752l1.95,1.249C199.453,179.121,199.284,179.381,199.113,179.64z
		 M84.034,178.821c-0.167-0.261-0.332-0.522-0.495-0.785l1.968-1.222c0.157,0.254,0.317,0.506,0.478,0.756L84.034,178.821z
		 M200.117,178.074l-1.966-1.224c0.158-0.254,0.314-0.51,0.469-0.766l1.983,1.197C200.443,177.547,200.28,177.811,200.117,178.074z
		 M83.056,177.246c-0.16-0.265-0.317-0.53-0.473-0.797l1.999-1.169c0.151,0.258,0.303,0.514,0.457,0.77L83.056,177.246z
		 M201.077,176.483l-1.997-1.174c0.151-0.257,0.3-0.516,0.448-0.776l2.015,1.142C201.39,175.946,201.234,176.216,201.077,176.483z
		 M82.121,175.647c-0.153-0.269-0.304-0.54-0.452-0.812l2.032-1.112c0.143,0.261,0.288,0.521,0.434,0.78L82.121,175.647z
		 M201.997,174.862l-2.031-1.114c0.144-0.264,0.287-0.527,0.429-0.793l2.044,1.09C202.294,174.318,202.146,174.591,201.997,174.862z
		 M81.229,174.022c-0.145-0.273-0.288-0.547-0.429-0.822l2.061-1.058c0.136,0.266,0.274,0.529,0.414,0.793L81.229,174.022z
		 M202.87,173.221l-2.057-1.066c0.137-0.265,0.272-0.531,0.404-0.798l2.075,1.03C203.153,172.667,203.012,172.946,202.87,173.221z
		 M80.382,172.375c-0.137-0.275-0.272-0.552-0.405-0.829l2.087-1.005c0.13,0.268,0.261,0.536,0.394,0.804L80.382,172.375z
		 M203.701,171.551l-2.089-1.001c0.13-0.27,0.258-0.542,0.384-0.814l2.102,0.973C203.968,170.99,203.835,171.27,203.701,171.551z
		 M79.58,170.706c-0.129-0.279-0.256-0.559-0.382-0.839l2.112-0.95c0.123,0.272,0.246,0.544,0.372,0.816L79.58,170.706z
		 M204.485,169.862l-2.115-0.946c0.122-0.273,0.243-0.547,0.362-0.823l2.128,0.916C204.737,169.293,204.611,169.578,204.485,169.862
		z M78.825,169.018c-0.122-0.283-0.241-0.567-0.36-0.852l2.139-0.889c0.115,0.276,0.231,0.55,0.349,0.823L78.825,169.018z
		 M205.221,168.153l-2.138-0.891c0.115-0.276,0.228-0.553,0.339-0.832l2.152,0.857C205.458,167.576,205.341,167.864,205.221,168.153
		z M78.115,167.31c-0.114-0.287-0.227-0.575-0.338-0.862l2.161-0.834c0.108,0.281,0.217,0.56,0.328,0.838L78.115,167.31z
		 M205.913,166.419l-2.163-0.829c0.107-0.281,0.213-0.561,0.317-0.844l2.174,0.8C206.133,165.838,206.024,166.13,205.913,166.419z
		 M77.45,165.576c-0.107-0.29-0.213-0.583-0.315-0.876l2.185-0.768c0.099,0.282,0.201,0.562,0.304,0.842L77.45,165.576z
		 M206.557,164.669l-2.186-0.768c0.1-0.284,0.198-0.568,0.294-0.853l2.195,0.739C206.761,164.083,206.66,164.376,206.557,164.669z
		 M76.832,163.823c-0.098-0.293-0.195-0.587-0.291-0.882l2.205-0.711c0.092,0.286,0.185,0.569,0.281,0.852L76.832,163.823z
		 M207.152,162.902l-2.206-0.708c0.092-0.287,0.182-0.573,0.27-0.861l2.215,0.679C207.341,162.309,207.247,162.606,207.152,162.902z
		 M76.262,162.055c-0.091-0.296-0.18-0.593-0.267-0.892l2.224-0.649c0.084,0.288,0.17,0.573,0.257,0.858L76.262,162.055z
		 M207.697,161.122l-2.224-0.649c0.084-0.287,0.166-0.575,0.245-0.863l2.233,0.618C207.868,160.528,207.784,160.827,207.697,161.122
		z M75.741,160.272c-0.083-0.299-0.163-0.598-0.243-0.898l2.241-0.588c0.076,0.29,0.154,0.578,0.234,0.866L75.741,160.272z
		 M208.194,159.332l-2.241-0.588c0.076-0.289,0.15-0.578,0.221-0.869l2.249,0.556C208.349,158.732,208.272,159.032,208.194,159.332z
		 M75.268,158.475c-0.075-0.3-0.147-0.601-0.218-0.904l2.256-0.527c0.068,0.292,0.138,0.583,0.21,0.872L75.268,158.475z
		 M208.64,157.528l-2.256-0.526c0.068-0.291,0.134-0.583,0.198-0.876l2.263,0.495C208.779,156.924,208.711,157.226,208.64,157.528z
		 M74.845,156.667c-0.067-0.302-0.131-0.605-0.194-0.909l2.269-0.467c0.06,0.293,0.123,0.585,0.187,0.877L74.845,156.667z
		 M209.038,155.713l-2.27-0.462c0.06-0.294,0.118-0.587,0.174-0.882l2.276,0.433C209.16,155.106,209.1,155.409,209.038,155.713z
		 M74.47,154.847c-0.058-0.303-0.114-0.608-0.168-0.912l2.281-0.406c0.053,0.296,0.107,0.59,0.163,0.884L74.47,154.847z
		 M209.387,153.889l-2.282-0.401c0.052-0.295,0.102-0.59,0.15-0.887l2.286,0.372C209.492,153.279,209.44,153.585,209.387,153.889z
		 M74.146,153.018c-0.05-0.305-0.098-0.611-0.144-0.916l2.291-0.344c0.045,0.296,0.091,0.592,0.139,0.887L74.146,153.018z
		 M209.685,152.055l-2.291-0.339c0.044-0.296,0.086-0.592,0.126-0.889l2.296,0.308C209.773,151.442,209.73,151.748,209.685,152.055z
		 M73.872,151.181c-0.042-0.306-0.081-0.613-0.119-0.92l2.3-0.281c0.036,0.297,0.074,0.593,0.114,0.89L73.872,151.181z
		 M209.932,150.214l-2.299-0.278c0.036-0.297,0.07-0.594,0.102-0.892l2.303,0.248C210.005,149.6,209.97,149.906,209.932,150.214z
		 M73.647,149.336c-0.033-0.307-0.064-0.614-0.093-0.922l2.306-0.22c0.029,0.299,0.059,0.597,0.091,0.895L73.647,149.336z
		 M210.131,148.369l-2.307-0.217c0.028-0.297,0.054-0.596,0.078-0.894l2.309,0.186C210.186,147.753,210.16,148.061,210.131,148.369z
		 M73.472,147.488c-0.025-0.308-0.048-0.617-0.069-0.926l2.311-0.156c0.02,0.299,0.043,0.597,0.067,0.895L73.472,147.488z
		 M210.28,146.518l-2.311-0.156c0.02-0.298,0.038-0.596,0.054-0.895l2.313,0.122C210.319,145.899,210.3,146.209,210.28,146.518z
		 M73.347,145.635c-0.017-0.309-0.032-0.619-0.044-0.929l2.315-0.092c0.012,0.299,0.026,0.598,0.042,0.895L73.347,145.635z
		 M210.378,144.664l-2.315-0.095c0.012-0.298,0.022-0.596,0.03-0.895l2.316,0.061C210.401,144.044,210.39,144.355,210.378,144.664z
		 M73.272,143.783c-0.008-0.309-0.015-0.617-0.02-0.927l2.316-0.034c0.005,0.299,0.01,0.598,0.019,0.896L73.272,143.783z
		 M210.428,142.806l-2.316-0.03c0.004-0.299,0.006-0.598,0.006-0.898v-0.098h2.316v0.098
		C210.434,142.187,210.432,142.497,210.428,142.806z M73.246,141.925v-0.048c0-0.294,0.002-0.586,0.005-0.879l2.316,0.029
		c-0.004,0.283-0.005,0.567-0.005,0.85L73.246,141.925z M208.111,140.883c-0.005-0.299-0.011-0.598-0.019-0.896l2.316-0.065
		c0.008,0.309,0.016,0.617,0.02,0.927L208.111,140.883z M75.585,140.131l-2.316-0.061c0.008-0.31,0.018-0.619,0.03-0.928
		l2.315,0.092C75.603,139.532,75.593,139.831,75.585,140.131z M208.059,139.093c-0.012-0.3-0.027-0.599-0.043-0.897l2.313-0.126
		c0.017,0.309,0.032,0.617,0.045,0.928L208.059,139.093z M75.655,138.337l-2.313-0.122c0.016-0.31,0.034-0.619,0.055-0.928
		l2.311,0.156C75.688,137.74,75.671,138.038,75.655,138.337z M207.963,137.301c-0.02-0.299-0.043-0.597-0.067-0.895l2.308-0.19
		c0.025,0.308,0.049,0.617,0.07,0.926L207.963,137.301z M75.774,136.544l-2.309-0.183c0.024-0.31,0.051-0.619,0.08-0.927
		l2.307,0.217C75.823,135.949,75.798,136.247,75.774,136.544z M207.816,135.514c-0.029-0.299-0.059-0.597-0.092-0.895l2.303-0.251
		c0.033,0.307,0.065,0.614,0.094,0.922L207.816,135.514z M75.94,134.759l-2.303-0.248c0.033-0.308,0.068-0.616,0.105-0.923
		l2.299,0.278C76.006,134.164,75.972,134.461,75.94,134.759z M207.623,133.729c-0.037-0.298-0.076-0.595-0.116-0.891l2.295-0.313
		c0.042,0.306,0.081,0.613,0.119,0.919L207.623,133.729z M76.155,132.976l-2.296-0.308c0.041-0.307,0.084-0.614,0.13-0.92
		l2.292,0.339C76.236,132.383,76.194,132.68,76.155,132.976z M207.38,131.949c-0.045-0.296-0.091-0.592-0.139-0.886l2.285-0.377
		c0.05,0.305,0.099,0.611,0.145,0.917L207.38,131.949z M76.418,131.2l-2.287-0.369c0.049-0.306,0.101-0.612,0.155-0.916l2.282,0.4
		C76.515,130.61,76.465,130.905,76.418,131.2z M207.089,130.178c-0.053-0.295-0.107-0.589-0.163-0.882l2.275-0.438
		c0.058,0.304,0.115,0.609,0.169,0.914L207.089,130.178z M76.729,129.434L74.453,129c0.058-0.304,0.118-0.607,0.179-0.91l2.27,0.462
		C76.843,128.845,76.785,129.139,76.729,129.434z M206.75,128.416c-0.06-0.294-0.123-0.586-0.187-0.878l2.262-0.499
		c0.067,0.302,0.131,0.605,0.194,0.909L206.75,128.416z M77.087,127.675l-2.263-0.494c0.066-0.303,0.134-0.605,0.205-0.907
		l2.256,0.526C77.217,127.091,77.151,127.383,77.087,127.675z M206.362,126.662c-0.068-0.291-0.138-0.582-0.211-0.871l2.248-0.56
		c0.075,0.3,0.148,0.601,0.219,0.903L206.362,126.662z M77.494,125.927l-2.249-0.555c0.074-0.301,0.151-0.601,0.229-0.901
		l2.241,0.586C77.639,125.347,77.566,125.636,77.494,125.927z M205.929,124.921c-0.076-0.29-0.155-0.578-0.235-0.866l2.232-0.621
		c0.083,0.298,0.164,0.597,0.243,0.897L205.929,124.921z M77.948,124.191l-2.233-0.617c0.082-0.299,0.167-0.596,0.254-0.894
		l2.224,0.648C78.11,123.615,78.028,123.903,77.948,124.191z M205.447,123.192c-0.084-0.287-0.17-0.573-0.258-0.858l2.214-0.682
		c0.091,0.296,0.18,0.592,0.268,0.891L205.447,123.192z M78.449,122.468l-2.215-0.678c0.091-0.298,0.184-0.594,0.278-0.89
		l2.206,0.707C78.627,121.893,78.538,122.18,78.449,122.468z M204.918,121.477c-0.091-0.284-0.185-0.568-0.281-0.85l2.194-0.743
		c0.099,0.294,0.197,0.589,0.292,0.884L204.918,121.477z M79,120.753l-2.195-0.739c0.099-0.295,0.2-0.589,0.303-0.882l2.186,0.768
		C79.193,120.183,79.096,120.467,79,120.753z M204.344,119.779c-0.1-0.282-0.202-0.564-0.305-0.846l2.174-0.8
		c0.107,0.29,0.212,0.581,0.315,0.872L204.344,119.779z M79.597,119.052l-2.175-0.797c0.107-0.292,0.216-0.583,0.327-0.873
		l2.164,0.827C79.806,118.489,79.7,118.77,79.597,119.052z M203.723,118.094c-0.107-0.279-0.217-0.557-0.328-0.834l2.151-0.861
		c0.115,0.288,0.229,0.576,0.339,0.866L203.723,118.094z M80.24,117.371l-2.152-0.858c0.115-0.288,0.232-0.576,0.35-0.863
		l2.141,0.885C80.465,116.813,80.352,117.091,80.24,117.371z M203.057,116.431c-0.114-0.275-0.23-0.548-0.348-0.821l2.126-0.92
		c0.123,0.284,0.244,0.568,0.362,0.854L203.057,116.431z M80.929,115.707l-2.127-0.915c0.122-0.286,0.247-0.571,0.374-0.854
		l2.115,0.945C81.168,115.157,81.048,115.432,80.929,115.707z M202.347,114.79c-0.121-0.272-0.245-0.542-0.37-0.812l2.1-0.977
		c0.13,0.28,0.259,0.561,0.385,0.844L202.347,114.79z M81.663,114.063l-2.102-0.973c0.131-0.282,0.263-0.563,0.397-0.843
		l2.088,1.002C81.917,113.52,81.789,113.791,81.663,114.063z M201.595,113.171c-0.13-0.269-0.261-0.537-0.394-0.804l2.074-1.032
		c0.137,0.275,0.272,0.552,0.406,0.83L201.595,113.171z M82.442,112.441l-2.075-1.031c0.138-0.277,0.278-0.554,0.419-0.83
		l2.062,1.057C82.711,111.904,82.575,112.172,82.442,112.441z M200.797,111.568c-0.136-0.265-0.275-0.529-0.415-0.792l2.045-1.089
		c0.145,0.273,0.288,0.546,0.43,0.821L200.797,111.568z M83.264,110.841l-2.046-1.086c0.146-0.274,0.293-0.548,0.443-0.821
		l2.03,1.116C83.546,110.313,83.404,110.576,83.264,110.841z M199.957,109.99c-0.144-0.262-0.29-0.522-0.437-0.782l2.014-1.143
		c0.152,0.268,0.302,0.537,0.451,0.807L199.957,109.99z M84.129,109.264l-2.016-1.14c0.153-0.27,0.308-0.539,0.465-0.808
		l1.999,1.171C84.425,108.744,84.276,109.003,84.129,109.264z M199.074,108.434c-0.152-0.258-0.304-0.515-0.459-0.771l1.983-1.198
		c0.159,0.264,0.317,0.529,0.473,0.795L199.074,108.434z M85.036,107.712l-1.984-1.196c0.16-0.266,0.322-0.531,0.487-0.795
		l1.966,1.225C85.346,107.201,85.19,107.456,85.036,107.712z M198.148,106.901c-0.159-0.254-0.318-0.507-0.479-0.758l1.95-1.25
		c0.167,0.26,0.331,0.52,0.494,0.782L198.148,106.901z M85.984,106.185l-1.95-1.25c0.167-0.261,0.335-0.52,0.506-0.779l1.935,1.274
		C86.31,105.681,86.146,105.933,85.984,106.185z M197.18,105.392c-0.165-0.249-0.331-0.497-0.499-0.744l1.916-1.302
		c0.173,0.255,0.345,0.511,0.515,0.769L197.18,105.392z M86.974,104.685l-1.917-1.301c0.174-0.257,0.35-0.511,0.528-0.766
		l1.899,1.327C87.312,104.19,87.142,104.437,86.974,104.685z M196.172,103.91c-0.171-0.244-0.344-0.487-0.518-0.729l1.879-1.355
		c0.181,0.251,0.36,0.503,0.538,0.757L196.172,103.91z M88.003,103.212l-1.881-1.353c0.18-0.251,0.363-0.501,0.547-0.751
		l1.863,1.377C88.355,102.727,88.178,102.969,88.003,103.212z M195.124,102.456c-0.177-0.24-0.356-0.478-0.538-0.716l1.842-1.404
		c0.188,0.246,0.374,0.494,0.558,0.743L195.124,102.456z M89.072,101.769l-1.843-1.403c0.188-0.247,0.377-0.492,0.569-0.736
		l1.823,1.43C89.436,101.294,89.253,101.531,89.072,101.769z M194.037,101.03c-0.183-0.235-0.369-0.468-0.556-0.7l1.803-1.454
		c0.195,0.242,0.388,0.484,0.578,0.728L194.037,101.03z M90.179,100.355l-1.804-1.452c0.194-0.242,0.39-0.482,0.588-0.721
		l1.784,1.478C90.556,99.89,90.367,100.122,90.179,100.355z M192.915,99.636c-0.192-0.23-0.384-0.46-0.578-0.688l1.765-1.5
		c0.2,0.235,0.398,0.471,0.595,0.709L192.915,99.636z M91.324,98.97l-1.765-1.5c0.201-0.236,0.403-0.471,0.606-0.704l1.744,1.524
		C91.713,98.516,91.518,98.742,91.324,98.97z M191.752,98.27c-0.197-0.225-0.396-0.45-0.596-0.672l1.724-1.548
		c0.206,0.23,0.411,0.461,0.615,0.694L191.752,98.27z M92.505,97.618l-1.724-1.548c0.207-0.23,0.415-0.459,0.624-0.686l1.704,1.569
		C92.907,97.174,92.705,97.395,92.505,97.618z M190.553,96.936c-0.203-0.22-0.407-0.438-0.613-0.656l1.681-1.593
		c0.213,0.225,0.425,0.451,0.634,0.678L190.553,96.936z M93.722,96.299l-1.681-1.593c0.213-0.225,0.428-0.449,0.644-0.671
		l1.658,1.618C94.135,95.867,93.928,96.082,93.722,96.299z M189.317,95.633c-0.208-0.214-0.419-0.427-0.63-0.638l1.639-1.638
		c0.219,0.219,0.436,0.439,0.652,0.66L189.317,95.633z M94.975,95.013l-1.638-1.638c0.219-0.219,0.439-0.437,0.661-0.653
		l1.614,1.662C95.398,94.592,95.186,94.802,94.975,95.013z M188.048,94.364c-0.214-0.208-0.43-0.416-0.647-0.621l1.593-1.681
		c0.225,0.213,0.448,0.427,0.67,0.643L188.048,94.364z M96.26,93.761l-1.593-1.681c0.225-0.213,0.451-0.424,0.678-0.634l1.571,1.703
		C96.695,93.351,96.477,93.555,96.26,93.761z M186.744,93.13c-0.22-0.202-0.441-0.403-0.663-0.603l1.546-1.726
		c0.231,0.207,0.461,0.416,0.688,0.626L186.744,93.13z M97.578,92.546l-1.548-1.724c0.23-0.207,0.462-0.412,0.694-0.615l1.524,1.744
		C98.024,92.147,97.801,92.346,97.578,92.546z M185.409,91.933c-0.226-0.197-0.453-0.392-0.681-0.587l1.5-1.765
		c0.236,0.201,0.471,0.402,0.703,0.605L185.409,91.933z M98.929,91.365l-1.5-1.765c0.236-0.2,0.473-0.399,0.711-0.596l1.476,1.785
		C99.386,90.979,99.157,91.172,98.929,91.365z M184.039,90.769c-0.23-0.191-0.461-0.379-0.694-0.566l1.451-1.806
		c0.242,0.194,0.483,0.391,0.722,0.589L184.039,90.769z M100.31,90.222l-1.452-1.805c0.241-0.194,0.483-0.386,0.727-0.577
		l1.427,1.825C100.777,89.849,100.543,90.035,100.31,90.222z M182.642,89.645c-0.237-0.184-0.474-0.368-0.712-0.549l1.403-1.843
		c0.246,0.188,0.491,0.376,0.735,0.567L182.642,89.645z M101.722,89.117l-1.402-1.843c0.246-0.187,0.493-0.373,0.741-0.556
		l1.379,1.861C102.199,88.756,101.96,88.936,101.722,89.117z M181.21,88.556c-0.241-0.178-0.482-0.355-0.726-0.529l1.352-1.881
		c0.251,0.181,0.502,0.364,0.752,0.548L181.21,88.556z M103.163,88.05l-1.353-1.88c0.251-0.18,0.502-0.359,0.756-0.537l1.327,1.899
		C103.648,87.703,103.405,87.876,103.163,88.05z M179.752,87.507c-0.245-0.172-0.492-0.341-0.74-0.509l1.301-1.917
		c0.257,0.174,0.511,0.35,0.766,0.528L179.752,87.507z M104.631,87.023l-1.302-1.916c0.255-0.173,0.512-0.345,0.77-0.515
		l1.277,1.932C105.126,86.688,104.878,86.855,104.631,87.023z M178.266,86.499c-0.25-0.165-0.502-0.329-0.755-0.49l1.25-1.95
		c0.261,0.167,0.52,0.335,0.779,0.506L178.266,86.499z M106.126,86.036l-1.25-1.95c0.26-0.167,0.521-0.332,0.784-0.495l1.223,1.967
		C106.629,85.716,106.377,85.875,106.126,86.036z M176.749,85.529c-0.254-0.158-0.509-0.314-0.765-0.469l1.196-1.984
		c0.266,0.16,0.531,0.322,0.795,0.486L176.749,85.529z M107.647,85.09l-1.197-1.983c0.264-0.159,0.53-0.317,0.796-0.474l1.171,1.999
		C108.159,84.783,107.902,84.936,107.647,85.09z M175.21,84.602c-0.258-0.151-0.517-0.3-0.778-0.448l1.14-2.016
		c0.27,0.153,0.539,0.308,0.808,0.465L175.21,84.602z M109.192,84.186l-1.143-2.014c0.268-0.152,0.538-0.303,0.809-0.452l1.115,2.03
		C109.712,83.894,109.451,84.039,109.192,84.186z M173.646,83.717c-0.263-0.144-0.527-0.286-0.792-0.427l1.086-2.047
		c0.274,0.146,0.548,0.293,0.819,0.442L173.646,83.717z M110.761,83.324l-1.089-2.045c0.273-0.145,0.547-0.289,0.821-0.429
		l1.059,2.06C111.288,83.046,111.023,83.184,110.761,83.324z M172.058,82.874c-0.267-0.137-0.535-0.272-0.804-0.406l1.031-2.075
		c0.278,0.138,0.554,0.278,0.83,0.419L172.058,82.874z M112.351,82.506l-1.032-2.074c0.275-0.137,0.552-0.272,0.83-0.406
		l1.006,2.087C112.886,82.242,112.618,82.373,112.351,82.506z M170.447,82.075c-0.27-0.13-0.542-0.257-0.815-0.384l0.973-2.102
		c0.282,0.13,0.562,0.262,0.842,0.396L170.447,82.075z M113.964,81.73l-0.977-2.1c0.28-0.131,0.56-0.258,0.842-0.384l0.948,2.113
		C114.504,81.481,114.234,81.604,113.964,81.73z M168.813,81.319c-0.274-0.122-0.549-0.243-0.825-0.362l0.915-2.128
		c0.285,0.122,0.569,0.247,0.852,0.372L168.813,81.319z M115.595,80.999l-0.92-2.126c0.283-0.122,0.567-0.243,0.852-0.361
		l0.891,2.138C116.143,80.765,115.868,80.881,115.595,80.999z M167.159,80.609c-0.278-0.115-0.556-0.228-0.836-0.34l0.858-2.152
		c0.288,0.115,0.576,0.232,0.862,0.35L167.159,80.609z M117.245,80.314l-0.862-2.151c0.287-0.115,0.575-0.228,0.864-0.339
		l0.833,2.161C117.801,80.093,117.522,80.202,117.245,80.314z M165.486,79.942c-0.281-0.107-0.562-0.213-0.844-0.316l0.797-2.175
		c0.292,0.107,0.583,0.216,0.873,0.327L165.486,79.942z M118.919,79.67l-0.8-2.174c0.29-0.107,0.582-0.212,0.874-0.315l0.77,2.185
		C119.481,79.465,119.2,79.567,118.919,79.67z M163.794,79.323c-0.282-0.099-0.566-0.197-0.851-0.292l0.736-2.197
		c0.295,0.099,0.59,0.2,0.883,0.303L163.794,79.323z M120.612,79.073l-0.743-2.194c0.294-0.099,0.588-0.196,0.882-0.291l0.712,2.204
		C121.179,78.883,120.895,78.977,120.612,79.073z M162.086,78.749c-0.286-0.092-0.573-0.181-0.86-0.27l0.678-2.215
		c0.298,0.091,0.594,0.184,0.89,0.278L162.086,78.749z M122.319,78.521l-0.682-2.214c0.297-0.091,0.594-0.181,0.892-0.268
		l0.647,2.225C122.89,78.348,122.604,78.434,122.319,78.521z M160.368,78.225c-0.288-0.083-0.576-0.165-0.865-0.245l0.617-2.233
		c0.298,0.082,0.595,0.166,0.892,0.252L160.368,78.225z M124.042,78.017l-0.621-2.232c0.298-0.083,0.597-0.164,0.896-0.243
		l0.591,2.24C124.619,77.858,124.33,77.937,124.042,78.017z M158.638,77.747c-0.29-0.075-0.58-0.149-0.871-0.221l0.555-2.249
		c0.301,0.074,0.6,0.15,0.899,0.228L158.638,77.747z M125.777,77.56l-0.561-2.248c0.3-0.075,0.601-0.148,0.903-0.219l0.528,2.256
		C126.357,77.417,126.067,77.488,125.777,77.56z M156.895,77.318c-0.291-0.068-0.584-0.133-0.877-0.197l0.495-2.263
		c0.303,0.066,0.604,0.134,0.905,0.204L156.895,77.318z M127.525,77.15l-0.499-2.262c0.302-0.067,0.605-0.131,0.909-0.194
		l0.468,2.269C128.109,77.023,127.816,77.086,127.525,77.15z M155.141,76.935c-0.293-0.06-0.586-0.117-0.88-0.173l0.43-2.276
		c0.305,0.057,0.608,0.118,0.911,0.179L155.141,76.935z M129.283,76.788l-0.438-2.275c0.304-0.058,0.609-0.115,0.914-0.169
		l0.406,2.281C129.87,76.677,129.576,76.731,129.283,76.788z M153.38,76.601c-0.295-0.052-0.591-0.101-0.887-0.149l0.369-2.287
		c0.305,0.049,0.61,0.101,0.914,0.154L153.38,76.601z M131.049,76.474l-0.373-2.286c0.304-0.05,0.61-0.098,0.915-0.144l0.346,2.291
		C131.64,76.379,131.344,76.426,131.049,76.474z M151.607,76.315c-0.296-0.044-0.593-0.085-0.891-0.125l0.308-2.296
		c0.307,0.041,0.613,0.084,0.918,0.129L151.607,76.315z M132.824,76.208l-0.313-2.295c0.306-0.042,0.613-0.081,0.92-0.119
		l0.284,2.299C133.418,76.13,133.12,76.168,132.824,76.208z M149.826,76.076c-0.296-0.036-0.593-0.069-0.891-0.101l0.244-2.304
		c0.309,0.033,0.616,0.068,0.924,0.105L149.826,76.076z M134.606,75.991l-0.251-2.303c0.307-0.033,0.615-0.065,0.924-0.094
		l0.22,2.306C135.201,75.928,134.902,75.958,134.606,75.991z M148.042,75.887c-0.298-0.028-0.596-0.054-0.894-0.077l0.183-2.309
		c0.309,0.025,0.618,0.051,0.925,0.08L148.042,75.887z M136.392,75.821l-0.187-2.309c0.308-0.025,0.616-0.048,0.924-0.069
		l0.159,2.311C136.989,75.774,136.69,75.797,136.392,75.821z M146.253,75.745c-0.298-0.02-0.597-0.037-0.896-0.053l0.122-2.313
		c0.309,0.016,0.618,0.034,0.927,0.055L146.253,75.745z M138.183,75.7l-0.126-2.313c0.309-0.017,0.619-0.032,0.929-0.044
		l0.092,2.315C138.779,75.669,138.48,75.684,138.183,75.7z M144.46,75.651c-0.298-0.012-0.596-0.021-0.896-0.029l0.058-2.316
		c0.31,0.008,0.62,0.017,0.93,0.03L144.46,75.651z M139.975,75.626l-0.065-2.316c0.309-0.008,0.617-0.015,0.927-0.02l0.034,2.317
		C140.572,75.611,140.273,75.617,139.975,75.626z M142.665,75.606c-0.275-0.004-0.55-0.005-0.825-0.005l-0.074-2.317h0.074
		c0.285,0,0.57,0.002,0.854,0.005L142.665,75.606z"/>
	<path id="XMLID_98_" style="fill:#57889E;" d="M140.004,266.628l-0.691-0.012l0.027-1.374l0.685,0.012L140.004,266.628z
		 M146.921,266.54l-0.053-1.374l0.682-0.029l0.064,1.372L146.921,266.54z M132.406,266.29l-0.691-0.053l0.112-1.37l0.681,0.053
		L132.406,266.29z M154.51,266.006l-0.139-1.367l0.682-0.071l0.144,1.367L154.51,266.006z M124.84,265.492l-0.684-0.094l0.193-1.361
		l0.679,0.094L124.84,265.492z M162.05,265.011l-0.219-1.356l0.673-0.111l0.23,1.354L162.05,265.011z M117.338,264.235l-0.68-0.137
		l0.278-1.345l0.669,0.135L117.338,264.235z M169.519,263.56l-0.304-1.34l0.668-0.153l0.31,1.338L169.519,263.56z M109.925,262.521
		l-0.667-0.177l0.357-1.328l0.662,0.177L109.925,262.521z M176.883,261.652l-0.384-1.319l0.655-0.194l0.395,1.317L176.883,261.652z
		 M102.633,260.355l-0.661-0.221l0.441-1.301l0.65,0.217L102.633,260.355z M184.117,259.296l-0.464-1.294l0.641-0.233l0.475,1.29
		L184.117,259.296z M95.47,257.74l-0.643-0.259l0.517-1.273l0.637,0.257L95.47,257.74z M191.179,256.505l-0.542-1.263l0.623-0.27
		l0.552,1.258L191.179,256.505z M88.485,254.688l-0.626-0.298l0.596-1.238l0.62,0.297L88.485,254.688z M198.059,253.288
		l-0.621-1.226l0.608-0.309l0.627,1.222L198.059,253.288z M81.703,251.217l-0.606-0.337l0.67-1.199l0.601,0.333L81.703,251.217z
		 M204.729,249.653l-0.691-1.187l0.587-0.345l0.7,1.181L204.729,249.653z M75.149,247.34l-0.584-0.373l0.741-1.156l0.578,0.368
		L75.149,247.34z M211.168,245.621l-0.76-1.146l0.564-0.379l0.771,1.137L211.168,245.621z M68.844,243.069l-0.56-0.408l0.812-1.108
		l0.553,0.403L68.844,243.069z M217.355,241.2l-0.832-1.094l0.542-0.415l0.839,1.089L217.355,241.2z M62.813,238.426l-0.535-0.443
		l0.879-1.055l0.526,0.434L62.813,238.426z M223.264,236.411l-0.898-1.041l0.517-0.447l0.902,1.035L223.264,236.411z
		 M57.076,233.426l-0.508-0.474l0.944-1l0.499,0.465L57.076,233.426z M228.872,231.273l-0.959-0.985l0.487-0.477l0.966,0.977
		L228.872,231.273z M51.654,228.088l-0.478-0.502l1-0.943l0.47,0.494L51.654,228.088z M234.158,225.803l-1.016-0.925l0.46-0.508
		l1.021,0.92L234.158,225.803z M46.566,222.434l-0.444-0.527l1.052-0.884l0.441,0.524L46.566,222.434z M239.105,220.021
		l-1.069-0.862l0.427-0.534l1.076,0.854L239.105,220.021z M41.832,216.484l-0.413-0.556l1.107-0.814l0.407,0.547L41.832,216.484z
		 M243.692,213.948l-1.117-0.798l0.394-0.559l1.124,0.789L243.692,213.948z M37.468,210.258l-0.376-0.576l1.151-0.75l0.375,0.573
		L37.468,210.258z M247.908,207.602l-1.169-0.722l0.361-0.585l1.171,0.718L247.908,207.602z M33.493,203.781l-0.341-0.6l1.197-0.675
		l0.337,0.592L33.493,203.781z M251.724,201.013l-1.208-0.654l0.323-0.602l1.213,0.643L251.724,201.013z M29.921,197.077
		l-0.304-0.618l1.236-0.602l0.3,0.613L29.921,197.077z M255.136,194.198l-1.247-0.576l0.286-0.624l1.251,0.57L255.136,194.198z
		 M26.767,190.17l-0.265-0.635l1.27-0.526l0.262,0.63L26.767,190.17z M258.119,187.187l-1.279-0.499l0.249-0.642l1.281,0.495
		L258.119,187.187z M24.038,183.072l-0.227-0.655l1.3-0.445l0.224,0.646L24.038,183.072z M260.671,180l-1.308-0.421l0.208-0.655
		l1.31,0.413L260.671,180z M21.749,175.816l-0.186-0.666l1.325-0.365l0.184,0.659L21.749,175.816z M262.771,172.683l-1.333-0.337
		l0.167-0.665l1.333,0.331L262.771,172.683z M19.91,168.434l-0.145-0.677l1.344-0.283l0.143,0.668L19.91,168.434z M264.416,165.257
		L263.065,165l0.127-0.674l1.351,0.251L264.416,165.257z M18.526,160.953l-0.103-0.685l1.36-0.2l0.102,0.676L18.526,160.953z
		 M265.604,157.741l-1.363-0.171l0.084-0.68l1.365,0.166L265.604,157.741z M17.602,153.402l-0.061-0.69l1.369-0.118l0.061,0.682
		L17.602,153.402z M266.331,150.171l-1.37-0.091l0.042-0.681l1.372,0.08L266.331,150.171z M17.139,145.81l-0.02-0.689l1.374-0.037
		l0.019,0.683L17.139,145.81z M266.601,142.568l-1.374-0.005l0.002-0.938h1.374L266.601,142.568z M18.503,138.244l-1.374-0.04
		l0.022-0.692l1.373,0.048L18.503,138.244z M265.029,134.788l-0.041-0.684l1.372-0.086l0.041,0.69L265.029,134.788z M18.948,130.732
		l-1.368-0.123l0.064-0.689l1.368,0.131L18.948,130.732z M264.376,127.292l-0.082-0.677l1.363-0.171l0.084,0.688L264.376,127.292z
		 M19.846,123.263l-1.359-0.206l0.105-0.684l1.358,0.213L19.846,123.263z M263.268,119.852l-0.123-0.674l1.351-0.251l0.125,0.68
		L263.268,119.852z M21.199,115.862l-1.344-0.288l0.147-0.677l1.342,0.297L21.199,115.862z M261.708,112.491l-0.164-0.665
		l1.333-0.331l0.166,0.671L261.708,112.491z M23.002,108.558l-1.323-0.371l0.188-0.665l1.321,0.376L23.002,108.558z M259.698,105.24
		l-0.204-0.651l1.31-0.416l0.208,0.662L259.698,105.24z M25.251,101.378l-1.298-0.451l0.23-0.656l1.295,0.458L25.251,101.378z
		 M257.248,98.127l-0.244-0.637l1.281-0.496l0.248,0.648L257.248,98.127z M27.943,94.336l-1.268-0.529l0.27-0.641l1.264,0.538
		L27.943,94.336z M254.37,91.189l-0.282-0.618l1.249-0.574l0.285,0.629L254.37,91.189z M31.061,87.474l-1.233-0.607l0.309-0.622
		l1.229,0.615L31.061,87.474z M251.075,84.442l-0.32-0.603l1.212-0.648l0.323,0.609L251.075,84.442z M34.592,80.819l-1.193-0.682
		l0.345-0.601l1.19,0.687L34.592,80.819z M247.37,77.902l-0.355-0.58l1.169-0.723l0.361,0.591L247.37,77.902z M38.524,74.394
		l-1.15-0.752l0.38-0.578l1.147,0.757L38.524,74.394z M243.272,71.6l-0.388-0.558l1.123-0.791l0.397,0.568L243.272,71.6z
		 M42.837,68.223l-1.101-0.821l0.415-0.553l1.098,0.826L42.837,68.223z M238.8,65.557l-0.424-0.536l1.075-0.855l0.429,0.541
		L238.8,65.557z M47.517,62.325l-1.051-0.886l0.449-0.529l1.043,0.894L47.517,62.325z M233.967,59.794l-0.456-0.509l1.021-0.919
		l0.462,0.514L233.967,59.794z M52.544,56.724l-0.994-0.949l0.48-0.499l0.987,0.955L52.544,56.724z M228.795,54.333l-0.488-0.481
		l0.962-0.981l0.492,0.485L228.795,54.333z M57.9,51.44l-0.935-1.007l0.508-0.469l0.929,1.012L57.9,51.44z M223.295,49.193
		l-0.515-0.45l0.902-1.037l0.521,0.456L223.295,49.193z M63.565,46.491l-0.872-1.062l0.535-0.437l0.867,1.066L63.565,46.491z
		 M217.494,44.396l-0.541-0.418l0.837-1.09l0.548,0.424L217.494,44.396z M69.519,41.895l-0.807-1.112l0.56-0.404l0.801,1.116
		L69.519,41.895z M211.412,39.959l-0.567-0.386l0.77-1.138l0.572,0.389L211.412,39.959z M75.736,37.671L75,36.511l0.582-0.368
		l0.732,1.163L75.736,37.671z M205.068,35.899l-0.589-0.35l0.699-1.183l0.597,0.355L205.068,35.899z M82.199,33.835l-0.665-1.203
		l0.604-0.331l0.659,1.205L82.199,33.835z M198.488,32.232l-0.61-0.314l0.626-1.223l0.617,0.317L198.488,32.232z M88.88,30.401
		l-0.59-1.241l0.622-0.294l0.584,1.244L88.88,30.401z M191.693,28.975l-0.628-0.276l0.548-1.26l0.636,0.279L191.693,28.975z
		 M95.756,27.383l-0.513-1.275l0.642-0.257l0.507,1.278L95.756,27.383z M184.707,26.139l-0.644-0.237l0.47-1.291l0.653,0.24
		L184.707,26.139z M102.818,24.786l-0.436-1.303l0.658-0.217l0.427,1.306L102.818,24.786z M177.559,23.738l-0.655-0.196l0.389-1.318
		l0.663,0.198L177.559,23.738z M110.025,22.629l-0.353-1.328l0.669-0.176l0.347,1.329L110.025,22.629z M170.294,21.786l-0.667-0.156
		l0.309-1.339l0.673,0.157L170.294,21.786z M117.351,20.919l-0.272-1.347l0.678-0.135l0.265,1.348L117.351,20.919z M162.923,20.283
		l-0.675-0.115l0.227-1.355l0.681,0.115L162.923,20.283z M124.769,19.66l-0.19-1.361l0.686-0.094l0.182,1.362L124.769,19.66z
		 M155.473,19.233l-0.68-0.073l0.142-1.367l0.688,0.073L155.473,19.233z M132.248,18.857l-0.104-1.37l0.689-0.051l0.099,1.37
		L132.248,18.857z M147.973,18.639l-0.683-0.031l0.059-1.373l0.691,0.032L147.973,18.639z M139.765,18.507l-0.021-1.374l0.69-0.009
		l0.016,1.374L139.765,18.507z"/>
	<path id="XMLID_82_" style="fill:#57889E;" d="M141.84,236.505c-13.96,0-27.408-2.971-39.968-8.832l5.015-10.748
		c10.978,5.123,22.738,7.72,34.953,7.72c45.638,0,82.767-37.129,82.767-82.767v-0.184h11.86v0.184
		C236.467,194.055,194.017,236.505,141.84,236.505z M59.073,141.97h-11.86v-0.092c0-52.177,42.449-94.627,94.627-94.627
		c13.927,0,27.344,2.958,39.879,8.791l-5.003,10.753c-10.956-5.098-22.69-7.683-34.875-7.683c-45.637,0-82.766,37.129-82.766,82.767
		v0.091H59.073z"/>
	<path id="XMLID_344_" style="opacity:0.34;fill:#57889E;enable-background:new    ;" d="M141.84,222.742
		c-11.931,0-23.422-2.539-34.156-7.546l4.285-9.186c9.381,4.377,19.431,6.596,29.87,6.596c39,0,70.73-31.729,70.73-70.729v-0.156
		h10.135v0.113C222.705,186.467,186.429,222.742,141.84,222.742z M62.533,141.944l-1.558-0.005c0-44.65,36.275-80.926,80.864-80.926
		c11.902,0,23.368,2.528,34.081,7.512l-4.276,9.189c-9.363-4.357-19.391-6.566-29.805-6.566c-39,0-70.729,31.729-70.729,70.729
		L62.533,141.944z"/>
	<path id="XMLID_27_" style="fill:#57889E;" d="M141.84,262.446c-66.481,0-120.568-54.087-120.568-120.569
		S75.358,21.309,141.84,21.309s120.569,54.087,120.569,120.568S208.322,262.446,141.84,262.446z M141.84,25.381
		c-64.236,0-116.497,52.26-116.497,116.497s52.26,116.497,116.497,116.497s116.497-52.261,116.497-116.497
		S206.076,25.381,141.84,25.381z"/>
</g>
</svg>
